# xmcd
#
# Track frame offsets:
#	150
#	24106
#	42880
#	58046
#	73407
#	93598
#	115529
#	138120
#	159159
#	178608
#	197359
#	220153
#	241972
#	261998
#	285137
#	306461
#	327470
#
# Disc length: 4530 seconds
#
# Revision: 1
# Processed by: cddbd v1.5.2PL0 Copyright (c) Steve Scherf et al.
# Submitted via: audiograbber 1.83.01
#
DISCID=e911b011
DTITLE=Various Artist - Exit Wounds (OST)
DYEAR=1900
DGENRE=Soundtrack
TTITLE0=DMX - No sunshine
TTITLE1=Black Chilo feat. JA Rule - State of state
TTITLE2=NAS - Gangsta tears
TTITLE3=Trick Daddy feat. Trina - We got
TTITLE4=Sincere feat Timbaland - Party
TTITLE5=Ideal - It's on me
TTITLE6=Three 6 Mafia feat. PAT - They don't f@*k wit U
TTITLE7=Big Stan feat. DMX - Walk with me
TTITLE8=Memphis bleek - 1-2-3
TTITLE9=The Lox feat. Styles and Sheek - Bust your gun
TTITLE10=Mack 10 feat. Cash $ Millionaires - Steady grinding
TTITLE11=Playa - Incense burning
TTITLE12=Drag-On feat. Aja - Off da chain Daddy
TTITLE13=Outsiderz 4 life - Hell yeah (Remix)
TTITLE14=Lady Luck feat. Red Man - Hey ladies
TTITLE15=Caviar feat. WC - Fo' all y'all
TTITLE16=Iceberg - Dog 4 life
EXTD=
EXTT0=
EXTT1=
EXTT2=
EXTT3=
EXTT4=
EXTT5=
EXTT6=
EXTT7=
EXTT8=
EXTT9=
EXTT10=
EXTT11=
EXTT12=
EXTT13=
EXTT14=
EXTT15=
EXTT16=
PLAYORDER=
